<svg width="12" height="7" viewBox="0 0 12 7" fill="none" xmlns="http://www.w3.org/2000/svg">
<path d="M6.71929 6.70772L11.7193 1.71633C11.9014 1.52805 12.0022 1.27588 12 1.01414C11.9977 0.752392 11.8925 0.502012 11.7071 0.316923C11.5217 0.131834 11.2709 0.0268462 11.0087 0.0245717C10.7465 0.0222972 10.4939 0.122918 10.3053 0.304762L6.01229 4.59037L1.71929 0.304761C1.62704 0.209416 1.5167 0.133365 1.39469 0.0810459C1.27269 0.0287271 1.14147 0.00118834 1.00869 3.65003e-05C0.87591 -0.00111534 0.74423 0.0241428 0.621334 0.0743371C0.498438 0.124531 0.386786 0.198657 0.292893 0.292388C0.199 0.386119 0.124747 0.497578 0.0744667 0.620263C0.0241861 0.742948 -0.00111677 0.874401 3.71755e-05 1.00695C0.00119112 1.1395 0.0287771 1.2705 0.0811863 1.39229C0.133595 1.51408 0.209778 1.62424 0.305288 1.71633L5.30529 6.70772C5.49282 6.89486 5.74712 7 6.01229 7C6.27745 7 6.53176 6.89486 6.71929 6.70772Z" fill="#AAB2CA"/>
</svg>
